<?xml version="1.0" encoding="UTF-8" standalone="no"?>
<!DOCTYPE svg PUBLIC "-//W3C//DTD SVG 1.1//EN" "http://www.w3.org/Graphics/SVG/1.1/DTD/svg11.dtd">
<svg version="1.1" xmlns="http://www.w3.org/2000/svg" xmlns:xlink="http://www.w3.org/1999/xlink" preserveAspectRatio="xMidYMid meet" viewBox="0 0 851 315" width="851" height="315"><defs><path d="M0 0L851 0L851 315L0 315L0 0Z" id="i2E5sMgW6W"></path><path d="M787.5 281.05C783.83 277.58 783.51 271.95 786.78 268.49C790.06 265.02 795.69 265.02 799.37 268.49C803.04 271.95 803.36 277.58 800.08 281.05C796.81 284.52 791.17 284.52 787.5 281.05Z" id="gTigJOBKG"></path><path d="M749.98 281.05C746.3 277.58 745.98 271.95 749.26 268.49C752.53 265.02 758.17 265.02 761.84 268.49C765.51 271.95 765.83 277.58 762.56 281.05C759.28 284.52 753.65 284.52 749.98 281.05Z" id="a9UbFjVzXD"></path><path d="M715.5 281.05C711.83 277.58 711.51 271.95 714.78 268.49C718.06 265.02 723.69 265.02 727.36 268.49C731.03 271.95 731.36 277.58 728.08 281.05C724.81 284.52 719.17 284.52 715.5 281.05Z" id="bH7CqH1IA"></path><path d="M682.04 281.05C678.37 277.58 678.05 271.95 681.32 268.49C684.6 265.02 690.23 265.02 693.9 268.49C697.58 271.95 697.9 277.58 694.62 281.05C691.35 284.52 685.71 284.52 682.04 281.05Z" id="b1B7nnwRAt"></path><path d="M646.55 281.05C642.88 277.58 642.56 271.95 645.83 268.49C649.1 265.02 654.74 265.02 658.41 268.49C662.08 271.95 662.4 277.58 659.13 281.05C655.86 284.52 650.22 284.52 646.55 281.05Z" id="a1qk6wd5rj"></path><path d="M615.12 281.05C611.45 277.58 611.13 271.95 614.4 268.49C617.68 265.02 623.32 265.02 626.99 268.49C630.66 271.95 630.98 277.58 627.7 281.05C624.43 284.52 618.79 284.52 615.12 281.05Z" id="cB2CRUeqq"></path><path d="M579.64 281.05C575.97 277.58 575.65 271.95 578.92 268.49C582.19 265.02 587.83 265.02 591.5 268.49C595.17 271.95 595.5 277.58 592.22 281.05C588.95 284.52 583.31 284.52 579.64 281.05Z" id="l16txHGYE"></path><path d="" id="f4JYXETFxX"></path><path d="M544.14 281.05C540.47 277.58 540.14 271.95 543.42 268.49C546.69 265.02 552.33 265.02 556 268.49C559.67 271.95 559.99 277.58 556.72 281.05C553.45 284.52 547.81 284.52 544.14 281.05Z" id="bAwEJe38v"></path><path d="M787.5 246.44C783.83 242.98 783.51 237.35 786.78 233.88C790.06 230.41 795.69 230.41 799.37 233.88C803.04 237.35 803.36 242.98 800.08 246.44C796.81 249.91 791.17 249.91 787.5 246.44Z" id="dovalrB2K"></path><path d="M787.5 215.31C783.83 211.84 783.51 206.21 786.78 202.74C790.06 199.28 795.69 199.28 799.37 202.74C803.04 206.21 803.36 211.84 800.08 215.31C796.81 218.77 791.17 218.77 787.5 215.31Z" id="b1EkCziROe"></path><path d="M787.5 181.12C783.83 177.66 783.51 172.03 786.78 168.56C790.06 165.09 795.69 165.09 799.37 168.56C803.04 172.03 803.36 177.66 800.08 181.12C796.81 184.59 791.17 184.59 787.5 181.12Z" id="d1bbIwLffC"></path><path d="M787.5 147.96C783.83 144.49 783.51 138.86 786.78 135.39C790.06 131.93 795.69 131.93 799.37 135.39C803.04 138.86 803.36 144.49 800.08 147.96C796.81 151.42 791.17 151.42 787.5 147.96Z" id="b3WlOXlRTf"></path><path d="M787.5 113.77C783.83 110.31 783.51 104.68 786.78 101.21C790.06 97.74 795.69 97.74 799.37 101.21C803.04 104.68 803.36 110.31 800.08 113.77C796.81 117.24 791.17 117.24 787.5 113.77Z" id="bNIMngK6s"></path><path d="M787.5 80.6C783.83 77.14 783.51 71.51 786.78 68.04C790.06 64.58 795.69 64.58 799.37 68.04C803.04 71.51 803.36 77.14 800.08 80.6C796.81 84.07 791.17 84.07 787.5 80.6Z" id="c3bgMWemwR"></path><path d="M403.7 281.05C400.03 277.58 399.71 271.95 402.98 268.49C406.26 265.02 411.9 265.02 415.57 268.49C419.24 271.95 419.56 277.58 416.28 281.05C413.01 284.52 407.37 284.52 403.7 281.05Z" id="b1YXfOTfxN"></path><path d="M364.14 281.05C360.47 277.58 360.15 271.95 363.42 268.49C366.7 265.02 372.34 265.02 376.01 268.49C379.68 271.95 380 277.58 376.73 281.05C373.45 284.52 367.81 284.52 364.14 281.05Z" id="mbXclc1hc"></path><path d="M324.58 281.05C320.91 277.58 320.59 271.95 323.87 268.49C327.14 265.02 332.78 265.02 336.45 268.49C340.12 271.95 340.44 277.58 337.17 281.05C333.89 284.52 328.26 284.52 324.58 281.05Z" id="b1KGq9pbYC"></path><path d="M512.39 264.15C512.39 282.29 497.81 297.02 479.86 297.02C461.91 297.02 447.33 282.29 447.33 264.15C447.33 246.01 461.91 231.28 479.86 231.28C497.81 231.28 512.39 246.01 512.39 264.15Z" id="dxJmiAb8j"></path></defs><g><g><g><use xlink:href="#i2E5sMgW6W" opacity="1" fill="#cb4335" fill-opacity="1"></use></g><g><use xlink:href="#gTigJOBKG" opacity="1" fill="#ffffff" fill-opacity="1"></use><g><use xlink:href="#gTigJOBKG" opacity="1" fill-opacity="0" stroke="#997774" stroke-width="1" stroke-opacity="1"></use></g></g><g><use xlink:href="#a9UbFjVzXD" opacity="1" fill="#ffffff" fill-opacity="1"></use><g><use xlink:href="#a9UbFjVzXD" opacity="1" fill-opacity="0" stroke="#997774" stroke-width="1" stroke-opacity="1"></use></g></g><g><use xlink:href="#bH7CqH1IA" opacity="1" fill="#ffffff" fill-opacity="1"></use><g><use xlink:href="#bH7CqH1IA" opacity="1" fill-opacity="0" stroke="#997774" stroke-width="1" stroke-opacity="1"></use></g></g><g><use xlink:href="#b1B7nnwRAt" opacity="1" fill="#ffffff" fill-opacity="1"></use><g><use xlink:href="#b1B7nnwRAt" opacity="1" fill-opacity="0" stroke="#997774" stroke-width="1" stroke-opacity="1"></use></g></g><g><use xlink:href="#a1qk6wd5rj" opacity="1" fill="#ffffff" fill-opacity="1"></use><g><use xlink:href="#a1qk6wd5rj" opacity="1" fill-opacity="0" stroke="#997774" stroke-width="1" stroke-opacity="1"></use></g></g><g><use xlink:href="#cB2CRUeqq" opacity="1" fill="#ffffff" fill-opacity="1"></use><g><use xlink:href="#cB2CRUeqq" opacity="1" fill-opacity="0" stroke="#997774" stroke-width="1" stroke-opacity="1"></use></g></g><g><use xlink:href="#l16txHGYE" opacity="1" fill="#ffffff" fill-opacity="1"></use><g><use xlink:href="#l16txHGYE" opacity="1" fill-opacity="0" stroke="#997774" stroke-width="1" stroke-opacity="1"></use></g></g><g><g><use xlink:href="#f4JYXETFxX" opacity="1" fill-opacity="0" stroke="#997774" stroke-width="0" stroke-opacity="1"></use></g></g><g><use xlink:href="#bAwEJe38v" opacity="1" fill="#ffffff" fill-opacity="1"></use><g><use xlink:href="#bAwEJe38v" opacity="1" fill-opacity="0" stroke="#997774" stroke-width="1" stroke-opacity="1"></use></g></g><g><use xlink:href="#dovalrB2K" opacity="1" fill="#ffffff" fill-opacity="1"></use><g><use xlink:href="#dovalrB2K" opacity="1" fill-opacity="0" stroke="#997774" stroke-width="1" stroke-opacity="1"></use></g></g><g><use xlink:href="#b1EkCziROe" opacity="1" fill="#ffffff" fill-opacity="1"></use><g><use xlink:href="#b1EkCziROe" opacity="1" fill-opacity="0" stroke="#997774" stroke-width="1" stroke-opacity="1"></use></g></g><g><use xlink:href="#d1bbIwLffC" opacity="1" fill="#ffffff" fill-opacity="1"></use><g><use xlink:href="#d1bbIwLffC" opacity="1" fill-opacity="0" stroke="#997774" stroke-width="1" stroke-opacity="1"></use></g></g><g><use xlink:href="#b3WlOXlRTf" opacity="1" fill="#ffffff" fill-opacity="1"></use><g><use xlink:href="#b3WlOXlRTf" opacity="1" fill-opacity="0" stroke="#997774" stroke-width="1" stroke-opacity="1"></use></g></g><g><use xlink:href="#bNIMngK6s" opacity="1" fill="#ffffff" fill-opacity="1"></use><g><use xlink:href="#bNIMngK6s" opacity="1" fill-opacity="0" stroke="#997774" stroke-width="1" stroke-opacity="1"></use></g></g><g><use xlink:href="#c3bgMWemwR" opacity="1" fill="#ffffff" fill-opacity="1"></use><g><use xlink:href="#c3bgMWemwR" opacity="1" fill-opacity="0" stroke="#997774" stroke-width="1" stroke-opacity="1"></use></g></g><g><use xlink:href="#b1YXfOTfxN" opacity="1" fill="#ffffff" fill-opacity="1"></use><g><use xlink:href="#b1YXfOTfxN" opacity="1" fill-opacity="0" stroke="#997774" stroke-width="1" stroke-opacity="1"></use></g></g><g><use xlink:href="#mbXclc1hc" opacity="1" fill="#ffffff" fill-opacity="1"></use><g><use xlink:href="#mbXclc1hc" opacity="1" fill-opacity="0" stroke="#997774" stroke-width="1" stroke-opacity="1"></use></g></g><g><use xlink:href="#b1KGq9pbYC" opacity="1" fill="#ffffff" fill-opacity="1"></use><g><use xlink:href="#b1KGq9pbYC" opacity="1" fill-opacity="0" stroke="#997774" stroke-width="1" stroke-opacity="1"></use></g></g><g><use xlink:href="#dxJmiAb8j" opacity="1" fill="#ffc300" fill-opacity="1"></use></g></g></g></svg>